<mxfile host="65bd71144e">
    <diagram id="3JXP3CuE7cFAHSH5BP0z" name="Page-1">
        <mxGraphModel dx="843" dy="818" grid="1" gridSize="10" guides="1" tooltips="1" connect="1" arrows="1" fold="1" page="1" pageScale="1" pageWidth="827" pageHeight="1169" math="0" shadow="0">
            <root>
                <mxCell id="0"/>
                <mxCell id="1" parent="0"/>
                <mxCell id="2" value="Environment" style="rounded=1;whiteSpace=wrap;html=1;labelPosition=center;verticalLabelPosition=top;align=center;verticalAlign=bottom;labelBackgroundColor=#FFFFFF;fontColor=#000000;" vertex="1" parent="1">
                    <mxGeometry x="340" y="160" width="220" height="120" as="geometry"/>
                </mxCell>
                <mxCell id="3" value="AKS" style="aspect=fixed;html=1;points=[];align=center;image;fontSize=12;image=img/lib/azure2/containers/Kubernetes_Services.svg;labelBackgroundColor=#FFFFFF;fontColor=#000000;" vertex="1" parent="1">
                    <mxGeometry x="416" y="190" width="68" height="60" as="geometry"/>
                </mxCell>
                <mxCell id="5" value="1. create" style="edgeStyle=none;html=1;fontColor=#FF0080;fillColor=#d5e8d4;strokeColor=#82b366;strokeWidth=3;labelBackgroundColor=#FFFFFF;fontSize=20;" edge="1" parent="1" source="4" target="2">
                    <mxGeometry relative="1" as="geometry"/>
                </mxCell>
                <mxCell id="7" value="2. store" style="edgeStyle=none;html=1;labelBackgroundColor=#FFFFFF;strokeWidth=3;fontSize=20;fontColor=#FF0080;fillColor=#d5e8d4;strokeColor=#82b366;" edge="1" parent="1" source="4" target="6">
                    <mxGeometry relative="1" as="geometry"/>
                </mxCell>
                <mxCell id="4" value="pulumi" style="shape=image;verticalLabelPosition=bottom;labelBackgroundColor=#FFFFFF;verticalAlign=top;aspect=fixed;imageAspect=0;image=data:image/png,iVBORw0KGgoAAAANSUhEUgAAAGUAAABrCAYAAABudky/AAAABGdBTUEAALGPC/xhBQAAACBjSFJNAAB6JgAAgIQAAPoAAACA6AAAdTAAAOpgAAA6mAAAF3CculE8AAAAUGVYSWZNTQAqAAAACAACARIAAwAAAAEAAQAAh2kABAAAAAEAAAAmAAAAAAADoAEAAwAAAAEAAQAAoAIABAAAAAEAAABloAMABAAAAAEAAABrAAAAADiQrM0AAAIyaVRYdFhNTDpjb20uYWRvYmUueG1wAAAAAAA8eDp4bXBtZXRhIHhtbG5zOng9ImFkb2JlOm5zOm1ldGEvIiB4OnhtcHRrPSJYTVAgQ29yZSA2LjAuMCI+CiAgIDxyZGY6UkRGIHhtbG5zOnJkZj0iaHR0cDovL3d3dy53My5vcmcvMTk5OS8wMi8yMi1yZGYtc3ludGF4LW5zIyI+CiAgICAgIDxyZGY6RGVzY3JpcHRpb24gcmRmOmFib3V0PSIiCiAgICAgICAgICAgIHhtbG5zOmV4aWY9Imh0dHA6Ly9ucy5hZG9iZS5jb20vZXhpZi8xLjAvIgogICAgICAgICAgICB4bWxuczp0aWZmPSJodHRwOi8vbnMuYWRvYmUuY29tL3RpZmYvMS4wLyI+CiAgICAgICAgIDxleGlmOlBpeGVsWURpbWVuc2lvbj4xMDc8L2V4aWY6UGl4ZWxZRGltZW5zaW9uPgogICAgICAgICA8ZXhpZjpQaXhlbFhEaW1lbnNpb24+MTAxPC9leGlmOlBpeGVsWERpbWVuc2lvbj4KICAgICAgICAgPGV4aWY6Q29sb3JTcGFjZT4xPC9leGlmOkNvbG9yU3BhY2U+CiAgICAgICAgIDx0aWZmOk9yaWVudGF0aW9uPjE8L3RpZmY6T3JpZW50YXRpb24+CiAgICAgIDwvcmRmOkRlc2NyaXB0aW9uPgogICA8L3JkZjpSREY+CjwveDp4bXBtZXRhPgrqUxMHAAAS8UlEQVR4Ae1d3Y4btxUmOYrrvzjyE2R8UaBtAlh2etG7SE/g9ROs9q4o2uwu0MYNkGSlNEDQuMDKdlH0brVPkPV9C8nXjWvlok2AXnjyBCvHif+iIfudkUaRRvNDciitXJSAdmbIw3MO+Q3/ziFnOXuJwuPem3WPscsekzXFGP2qUN+Pi6AYHwqmAjwHkol+yEZfvNr4qh+nvyxXvu6KPu39xFeS7zAhNjlTBIJpCJChz5hsn2l8RfdrH9YWFNXzq8/ZuT3F1I7DWuy+DOCsJSjf9t6oeUx9BjB8h4DErAIA01jnVrN2oETdFfMeWHZVccXnXlHooWLyyroCI3K1P5FE0VsmIFQkmiBwJqglrmVYK1C+/fsbTdSSv4qaotnb495P6quQZSpjrUCBMjXTApSh9yTfKJN/WXnXChTFpc2U17puuOCvWWdeYsa1AoUrMVhiWRdYe0L2FyLXIGKtQHkuXunSqnwV9YIxZRhKdm8VskxlrBUoFxsDmElk27QQdvRqbVf4awUKVe7pxpcdXJYKjAT/s2M5dnguORdfMn9r9lhENhnje/j5zFkgY6XawqKx74zlEhitLShUVlrdMyaaqMjNMuDQ+IGC3jrNnnR4I1jJmEX62wYnoJDx8Ft2voaVuM+l8iuCvR4rFEr1KBq8hRooJoLzjX9ZzbAAUF0q3uScX4bStZh/1hVADJhU97hQR7Ytg2xw4F9LlolkjiT7mgtxTO6B8+zZwCXY1qAQEE/ZeTKnb+BNrpOiOmHi8+jjisr616FOnjSasdEyrIbM8+N0j4UB7oPT7NnQtpLIZ3OKyc2Q8Q0zcw/vQ3aXsfBeWZuaMSgExjN2dhuVumOmNFReDAG6pVYZcBZZ2sU86725LZlqOSgTKdAt4yIwAuVF743NEWMdR4rP1l5wUuZ0GrfIOInurrBLnFVY4x5lsnvhtEF53vvZHqaSLQ1lbElQiNX6OSYTiR4U9m2V1siHnuDfbQ26KYkWKN/97acbwuOrMHVjPHhyxXY8mJZK42ZFgESajPCymewV0Fo8ApB9jXK6IPGfyLM7LhgV8RBMbILGL6JzkV5h4sCETyEoL3o/pr7WN2FahlYIRpW19BAyhlnjyoI/qUctgYWgYMpZ1eLkjsh3xyqbE/ptetlWFp4b1GMhKJj7D1emOQQpWvStJgSrEWMupRCUU43/oJKiDW7m3C1y4A1eDSiSHVqoZ5lFBc4HekyFdy21McxG4K/GdP9MnOpE5h9DDW3IPaFaJvkKWwoxO9f48giXtgljU1p0W8OQietlTRS6csl3g5etsWxgIKN96u2vjFqlFihUUCyAWrgsCRiFvb+8YWusJP1sAsnjLLyyjO6ZXjLs7tw9N643I/W4ETWIadEFa21LcF566kqKQ4G1MKk/7f2sBXBQJu6z0kH1wYv8NoENK2NQYiEEDm285oJdMy+I6iPf0Y/k00Pb1fvYMHq6ClucH+tUKWkhHq/yWR3lIXBwNQoBqA899v3ReHJklHeO2BqUWS5R62G8xiSvkS8FLaCKplslGsF4QD4VUWEPlVRfwKxu5XuIXgJWuQYffh38a2DtE/+0QOMEjkT06TgEZ6O7Nm/sBPQatiFdliN2SQiOco3LxMEfFTckn4oSPMCyoW8jI013inMCShZzF/G0a9KLVvn6PpukXBQSDjbeWQcXQVK3tOc5UI53WvR201vI2DMWXPxrK4juT+APObEqTB1MWoUrDVCe1Vqik4p/8ot9vzJiPsV/N2KD1mB3mKSJQCEwhBzBTxIZ6WZpAkzPWudvf3Q4G7nse3I4YVd8Z1lysAmvaTpNLaNLq7ZfPScq24wrdL3JFs+7T8JwdxYcToB4Uj6AUD9H8MrAGXdX6iBHFydJ8DJen6y/nPDLYnLz5/t1pSIrsZ9Fg/jBk1A2YmBERak9ROZlIF4+FkHdx+98SLRLCzSYY/W7VBmx8h7jBzSYx8/LuN68emcPgPTA2y/gXzsj2E5MI5RSzfih6KrQlX3zmw8Oiuhs00Pp1ZHXt81vkg9lqT6VZ5omeUxoP716+wAb1lu6eTgX2zEtrejN3hbOm8sChnNZjxVbxZWmu8uQc/Pq7X2MH01D3lXq6iiPtpllTgCAWXZXNidvSQ9YNz1yzTrqsrjd4Vklx72EHSgoCXVlx79u1V0WatVHISoVRRMcZ+GPb+1vmHRZScGoU5/irEGhzJhaHhzv7Jh1f5QxI9BRCMAdZCQ7jlaBy2nxJ7V9H0uKfRdKlgIFCvhCXpjOGsoqROZ0gLJVlo9OfnIT6NDp0lSERwO1r0ufRsdhu6P4sqAwMNo7/mXLJ2YuAmxIsFmp68vyc6CLAPDSqZuAWomyHEdm6wxG2oCeS4MSMTk1ctZaiB8t6sjPgZ2YR/TsLsA6PT4/33fHE5XoiZYLfmR2IT4wppLtv1wg84zLsYW0IasrDhChi5ENtMaS4FAZyeb1JX5fBcTfVRiPJU62RU3tYBXF+T0Uul5SyaoIX22CR6ckn4Xs1J0hsh/7OuBgqwtO7gFeg97VZIZx94RuAMcgpBCDc+y7I1ufTZJ32jMs2PW0eNM4peRhnKcCxTuwfe3FEbZXVNA15HUOSqzP5A3v4pl+0zABK3oucwRiytDwhnNvE0ZGw1yL5FL+0BugLhnDCr3HuLGnLcl5GIpvLl3sdIbJhP/V531Yf7/3xHH58qnuu/d3tmI+8KDimItSba88KOhKqj7YDYhnXsBL0ET6JrpOH9chV2oQeuruxc7HR3heaRhbcb1NjK31SDDnAQba7m/vbx8WKfKswmpe+UaC9qDmZPFYsJPWotTWhTt/6MY8k1dyE1Sk7KEctWTa5BkVshr/Da2+J4s9P0OXOXN6Gs3Nq/s7ipddMM63EpITtRS6CT1va+JXwRtvFyZvfmZmcqTh3GMWIJRv7CLY/qA24o/by+gKyeF0VnhYeRcaDGtnPO8AOmUuMuHOqE7f6sxS5yeEoWonKabrlIudVkDdWJLA1TNaiU9TZx1+SvEdT1544HJRSnJp+nrWEw90LbhYJ23EllsdvU1pYCdrvzfYDZL5pqBQwsU7f+gwxZfSrwspm0nhBc++d0r2XAFDgHie6EGmXyB3LhmzovpchLMHdXTj891WGrs5UIgg9PgW+vwgjbgojnvsQRYNBvO3s9Jy4n1xSn5WdmFKXZYNIKSX4pnjH0PXFeTonpmkFAuehNk2vgVQ0I0NsXbBHltzgeFT8UWWJjj/bjVWoeC1inp1L4uvTvw54VF+X4c2SYMTX68n4+LnV2bWFnFc0ZUAkfIHf3wa/QIoRETjywSYQVqm1DjOu3lbkgCyFSgki8aY41+/v5EqtyDy06v7zZLGwky9d7E9CBvz+gUqTJNRBwMCJG0cmRLhJhUUIiBgXrv90RUwas9mSLsHzTB8znPp8MYP0/LqxnlCGPtuaBxhXOzpykiny/fvjMJwS6dskslbN+5vXykChHTIBCVWEMC0QiEuoeIP47jZK+IDORKNvFZC9Jg+ZnZts/xy7rE3zcx3M7He+jk8C5PgRniUR0SVrIRsULeUTqf6IZeN39/f3UlPX4wFyPqBprVsNKoJMV5roCn2WaUyoHGoiMujdz5sQVjJtxYtUtOUM5ltPSzSqygdhsL2jX+mz5KSeWlBCjNYjeJR1uAJxpx4L1eSNu95unjMI4rTqEvDPf2O8DMKBCC6oLKgxK2lVSTclY8Dp5X7RbLi9Bv3d6lejOsmzh9fC7uvmLD0FS0KPIZl+eAN3NbhAbq3degKaIa/+3y3X0DjPHlloFAXpxi766AE1aJdNJ+M90/55WW59nzqabQyUEgddGFdPbXyqYQYbeRRCCWaeem6aUnrrW6+snRzYwoG8vorUl4OMSOWQqK7qfR1BnFdJS7++eM+rNH90r4bLnK7JnRdl3V1yqZTfdddF1kWzngM/wNmvCCF7euLNBkRKDSr8sLwAK9yHVNXmjkwT1IjkuQA64bfe+2iKW924eZTXPhuuGL+PNeFp9pCjGEEWknbMEsmOc0EaeKBGr2GLrxKdRwFJdinb90KQuy4n12/iAgQ+Dgy315sUYVh8KGrbarUWhxs1qhmGSqjBWNcaOur6qa9wTbs/vTWne0KLNN40TcJkBQekaF0Vu8KfBwtrCH9FOK5KDBsodXUQ+/x9bJ+Dhe+mznlHD6MbVPlW0l0UMjzPsNKvq6hHoCJ7HNbRIuNIXo+jogxXMYu/By03lmm70ajErJJOGvNdiXZhNkp9NafrYje4qmt7Dyw8G0QkERhM/tyYk4n3w1a3608NXPTTg+HaemnS6yFyOkE+9RhGl/duMhNUMH/Zpms7HXzga56rjKewNiAQhOBmhe+CpdquQC72g7ONhpXAnwcMO2k75ohyy20Ckw1Iz2ynE4mvCI3gTkgkQgsGS7RjRUoEQdMAB795oOd6L7En9duf9w0bjFK3ssTObuxLY8uThtbcHeb8bPtlQZ1F24Ce1CgORxXTjZ3j1tMsYuAKgsABvJFpZNXcackfRFWz6SDLmvXxIKbJZfGEbS2Vla6SXwpUCCo6r2C9Y2DMOMiCLLYAZAh3ATXi9ZM1IWROT0fGOwvDuUVdFm5AGfpkoyndQj0qybjTZ6hb0D0/Jt3PgSvciGU8Kf8udUvx+WH3PAy1uEeaCIm+oQ6FAxwf1e+EJ0iQEA3DfT2Co/BZYCzjYr7aGdDydVdjElH7zk0NJIc7AF4OBVseYMznw1aH9GKfohfKYQ9Hu6BRx8/JyFaYDrgN5naNp0olcPElZtg9ijEIEeeXhLWL2V3nOgJWj8qaiXodjbLa6b6sUNMKDfmdGbqqi1fiPXggK82bbjQBEc7ujEfIT2PHqgLKxUs93WVkrkOmbGX2EErgek3/GGaLybOp8PSBbTowmAMLTWWldZ5hgGtxGMzx0x07i0dhQBBLZdIK1F1Z007kel+cnBIy82aJ8PjF95Geq53kYAgI2hkc5OyitkfrT0GmJsfjV6IQ5PZVZ4uOmkEAn1dCOuLJswUPuW5+dYteEj5URiGqft8Z/m6OgqR3OQdrVPIQIiKsbdDTTRVI3VpVunk/cRNADN29B2SaSvBQFmD/JZLF0FS9uwzgUFfhjiHaSwWj60YEKKBHtBLNWmbKw3is/mS9xXpvpWQjOniEa2FFj9BUrDRc8HWVGzy/gz8/DyeBA5az8Msf0leXp00qujIggswxgBk5iJz+kFmKhLoKEReelEauQmSrYTyTEGhsQUGsa0iRrbpxzvv16lFaOZ3uuM+lvlpbb8WbfTWNhiq+jKPQqCFproJpqCQ4rRow9vTjgthfFVqmJVHSLGRlZYRT8A4O6MSrScsjkKEMnvKi8rLLG9GmabReW6COVAoB9mgbMzplFcqb0DXtIAps81mhqqLMyoECLWQgu4qTW0YorK725EoPt+ZxrTITbAACjEZm9PN/RysMswGpWC8SVN+EueXNXp65HQqGMuy5OMoRObLdBpfiECXbNRaIkDu57sJUkEhBY39HHQUIsPxRPys3lLKSAFrIFvfDc2yILw2ZuT2L1mjpZLas1Zdv00mKKQ++TngSy882YUKD4qOQmAHS1CmSmx8N9RtRVPeMoILPnVFvhuaReWKUPjuvYHfJhcUEgRfendygKhNlb8gHN92gUm98CgETg5/vZDXLIJ8N/smWVxYb4uOQkStBQeBsEniaEG3MRjtJ3Dzmvht0CWaheNftWpMjHx0KVX2vdfXXYFT94O33ahS0zTT9d1MBveHaTxM4uBa3sVRiI5OHpIJ/00NmwWrzGODd/+xO9DJl6SJzCzJyLzni39pkSBjYRJflcBXLfJYa6VN9hH3i4hdtBKSgaMQ2mWd2K+CIt2K0svXUpGEmXSs1I/xWJ2JsrktPDhEhsIRmVBKyqKx4sY/ty/ZKFkmT+GYUoZ5Mi8qSXumksw781zF9qaNmeeF2xfYRF0WEGKK/cT9BeYriFgpKJgwdN2UKX/XPTqdXNB0dUizS+nmLUO3UlDIGu1gczdeYVXPKzT65MwFX16++bR5H8d82nKfVgoKFSUMvV0HRfILeNQK0guTT6qVkGIrB4Vmby7GlizTPk1LC2u8gIBW3rOewAJy58krB4VK4MR347wqxgxpxvUsZK0lsddieyKgLNt3o1XyDCIu5fV4q08GydKjTwQUKhX5bmBXsx5fsiwJZbodsk+9O7BbhbtE6sRAiYAZn1FpmxaIjkLk5TH5iE3MJ3I6OdpXHPO0vZ4oKKT02Klm5u2EbamTW2AV3s1NTyROAGklok/s8cRBoZJHO+7Rl2NWFhTVBNFcKPjHbdhl0i00p0MQ0dDHbFwcFirS2yR9LUAhhTHGHE1cBIdZBSBAyE2QlR7HT83pWX6OiUn9qZRXXO6+j+WXvWLxu36B9odhlUkfAbiGCXQVyyk4ieC3Edisp/HFpNkS0UfYYMS6hoJWxy2R06dtD096hjWr4//vX4Ia+C+5lXS2Zhmo2QAAAABJRU5ErkJggg==;fontColor=#000000;" vertex="1" parent="1">
                    <mxGeometry x="100" y="185" width="66.07" height="70" as="geometry"/>
                </mxCell>
                <mxCell id="9" value="3. pull" style="edgeStyle=none;html=1;labelBackgroundColor=#FFFFFF;strokeWidth=3;fontSize=20;fontColor=#FF0080;fillColor=#f8cecc;strokeColor=#b85450;" edge="1" parent="1" source="6" target="8">
                    <mxGeometry relative="1" as="geometry"/>
                </mxCell>
                <mxCell id="6" value="key vault" style="aspect=fixed;html=1;points=[];align=center;image;fontSize=12;image=img/lib/azure2/security/Key_Vaults.svg;labelBackgroundColor=#FFFFFF;fontColor=#000000;" vertex="1" parent="1">
                    <mxGeometry x="100" y="410" width="68" height="68" as="geometry"/>
                </mxCell>
                <mxCell id="12" value="5. deploy" style="edgeStyle=none;html=1;entryX=0.5;entryY=1;entryDx=0;entryDy=0;labelBackgroundColor=#FFFFFF;strokeWidth=3;fontSize=20;fontColor=#FF0080;fillColor=#f8cecc;strokeColor=#b85450;" edge="1" parent="1" source="8" target="2">
                    <mxGeometry relative="1" as="geometry"/>
                </mxCell>
                <mxCell id="8" value="" style="aspect=fixed;html=1;points=[];align=center;image;fontSize=12;image=img/lib/azure2/devops/Azure_DevOps.svg;labelBackgroundColor=#FFFFFF;fontColor=#000000;" vertex="1" parent="1">
                    <mxGeometry x="418" y="410" width="64" height="64" as="geometry"/>
                </mxCell>
                <mxCell id="11" value="4. spec" style="edgeStyle=none;html=1;labelBackgroundColor=#FFFFFF;strokeWidth=3;fontSize=20;fontColor=#FF0080;fillColor=#f8cecc;strokeColor=#b85450;" edge="1" parent="1" source="10" target="8">
                    <mxGeometry relative="1" as="geometry"/>
                </mxCell>
                <mxCell id="10" value="helm" style="verticalLabelPosition=middle;html=1;verticalAlign=middle;align=right;strokeColor=none;fillColor=#00BEF2;shape=mxgraph.azure.git_repository;labelBackgroundColor=#FFFFFF;fontSize=14;fontColor=#000000;labelPosition=left;" vertex="1" parent="1">
                    <mxGeometry x="422" y="560" width="55" height="50" as="geometry"/>
                </mxCell>
                <mxCell id="14" value="spec + secret key" style="edgeStyle=none;html=1;labelBackgroundColor=#FFFFFF;strokeWidth=3;fontSize=14;fontColor=#000000;fillColor=#d5e8d4;strokeColor=#82b366;" edge="1" parent="1" source="13" target="10">
                    <mxGeometry relative="1" as="geometry"/>
                </mxCell>
                <mxCell id="13" value="dev" style="sketch=0;aspect=fixed;html=1;points=[];align=center;image;fontSize=12;image=img/lib/mscae/Person.svg;labelBackgroundColor=#FFFFFF;fontColor=#000000;" vertex="1" parent="1">
                    <mxGeometry x="431.5" y="730" width="37" height="50" as="geometry"/>
                </mxCell>
            </root>
        </mxGraphModel>
    </diagram>
</mxfile>